<svg xmlns="http://www.w3.org/2000/svg" width="16" height="16" class="bi bi-x-diamond">

 <g>
  <title>background</title>
  <rect fill="none" id="canvas_background" height="402" width="582" y="-1" x="-1"/>
 </g>
 <g>
  <title>Layer 1</title>
  <path fill="#bababa" id="svg_1" d="m7.987,16a1.526,1.526 0 0 1 -1.07,-0.448l-6.467,-6.47a1.531,1.531 0 0 1 0,-2.165l6.467,-6.467a1.531,1.531 0 0 1 2.166,0l6.469,6.468a1.526,1.526 0 0 1 0.448,1.095a1.526,1.526 0 0 1 -0.448,1.07l-6.47,6.469a1.526,1.526 0 0 1 -1.094,0.448l-0.001,0zm-0.348,-14.83l-2.873,2.874l3.234,3.234l3.234,-3.234l-2.873,-2.874a0.51,0.51 0 0 0 -0.722,0zm1.083,6.83l3.234,3.234l2.873,-2.873c0.2,-0.2 0.2,-0.523 0,-0.722l-2.873,-2.873l-3.234,3.234zm-0.722,0.722l-3.234,3.234l2.873,2.873c0.2,0.2 0.523,0.2 0.722,0l2.873,-2.873l-3.234,-3.234zm-0.722,-0.722l-3.234,-3.234l-2.874,2.873a0.511,0.511 0 0 0 0,0.722l2.874,2.873l3.234,-3.234z"/>
 </g>
</svg>